<?xml version="1.0" standalone="no"?>
<!DOCTYPE svg PUBLIC "-//W3C//DTD SVG 20010904//EN"
 "http://www.w3.org/TR/2001/REC-SVG-20010904/DTD/svg10.dtd">
<svg version="1.0" xmlns="http://www.w3.org/2000/svg"
 width="500.000000pt" height="500.000000pt" viewBox="0 0 500.000000 500.000000"
 preserveAspectRatio="xMidYMid meet">
<metadata>
Created by potrace 1.11, written by Peter Selinger 2001-2013
</metadata>
<g transform="translate(0.000000,500.000000) scale(0.100000,-0.100000)"
fill="#000000" stroke="none">
<path d="M650 3540 l0 -220 -222 -2 -223 -3 0 -1070 0 -1070 68 -3 c51 -2 67
-6 67 -17 0 -13 35 -15 225 -15 l225 0 0 535 0 535 440 0 c384 0 440 -2 440
-15 0 -12 -14 -15 -65 -15 l-65 0 0 -505 0 -505 70 0 c56 0 70 -3 70 -15 0
-13 31 -15 220 -15 l220 0 0 1070 0 1070 -66 0 c-57 0 -67 3 -71 20 -5 18 -14
20 -89 20 -68 0 -84 -3 -84 -15 0 -12 -14 -15 -65 -15 l-65 0 -2 218 -3 217
-67 3 c-52 2 -68 6 -68 17 0 13 -62 15 -445 15 l-445 0 0 -220z m140 -233 c0
-20 135 -27 538 -27 297 0 342 -2 342 -15 0 -12 -14 -15 -65 -15 l-65 0 0
-280 0 -280 -310 0 c-269 0 -310 -2 -310 -15 0 -12 -14 -15 -65 -15 l-65 0 0
310 0 310 -70 0 c-63 0 -70 2 -70 20 0 18 7 20 70 20 52 0 70 -3 70 -13z"/>
<path d="M2742 2468 l3 -1293 68 -3 c51 -2 67 -6 67 -17 0 -13 35 -15 225 -15
l225 0 0 535 0 535 220 0 220 0 0 220 0 220 -66 0 c-57 0 -67 3 -71 20 -5 18
-14 20 -89 20 -68 0 -84 -3 -84 -15 0 -12 -14 -15 -65 -15 l-65 0 -2 533 -3
532 -67 3 c-52 2 -68 6 -68 17 0 13 -35 15 -225 15 l-225 0 2 -1292z"/>
<path d="M4080 3445 l0 -315 70 0 c56 0 70 -3 70 -15 0 -13 31 -15 220 -15
l220 0 0 315 0 315 -70 0 c-56 0 -70 3 -70 15 0 13 -31 15 -220 15 l-220 0 0
-315z"/>
<path d="M3630 2910 l0 -220 70 0 c53 0 70 -3 70 -14 0 -11 30 -15 143 -21 78
-3 178 -5 222 -3 l80 3 3 190 c2 105 0 205 -3 223 l-6 32 -64 0 c-51 0 -65 3
-65 15 0 13 -32 15 -225 15 l-225 0 0 -220z"/>
<path d="M3910 2225 c0 -12 -14 -15 -70 -15 -56 0 -70 -3 -70 -15 0 -12 -14
-15 -70 -15 l-70 0 0 -190 0 -190 70 0 c52 0 70 -3 70 -13 0 -16 136 -27 327
-27 94 0 113 -3 113 -15 0 -12 -14 -15 -65 -15 l-65 0 0 -280 0 -280 70 0 c56
0 70 -3 70 -15 0 -13 31 -15 220 -15 l220 0 0 310 0 310 -70 0 c-63 0 -70 2
-70 20 0 18 -7 20 -85 20 -69 0 -85 -3 -85 -15 0 -12 -14 -15 -65 -15 l-65 0
0 198 c0 108 -3 207 -6 220 -6 20 -12 22 -70 22 -50 0 -64 3 -64 15 0 12 -16
15 -85 15 -69 0 -85 -3 -85 -15z"/>
</g>
</svg>
